<svg width="42" height="42" viewBox="0 0 42 42" fill="none" xmlns="http://www.w3.org/2000/svg">
<rect x="0.676758" y="0.599121" width="40.4333" height="40.4333" rx="20.2166" fill="#7A82FF"/>
<path fill-rule="evenodd" clip-rule="evenodd" d="M19.1599 14.7508H17.2105C16.6121 14.7508 16.1274 15.236 16.1274 15.8338V25.7977C16.1274 26.3955 16.6126 26.8807 17.2105 26.8807H24.5751C25.1729 26.8807 25.6581 26.3955 25.6581 25.7977V21.249C25.6581 20.6745 25.4299 20.1235 25.0237 19.7173C24.6175 19.3111 24.0666 19.0829 23.4921 19.0829H22.409C22.1218 19.0829 21.8463 18.9688 21.6432 18.7657C21.4401 18.5626 21.326 18.2871 21.326 17.9999V16.9168C21.326 16.3424 21.0978 15.7914 20.6916 15.3852C20.2854 14.979 19.7344 14.7508 19.1599 14.7508ZM22.978 21.0676C23.0127 21.0214 23.0377 20.9688 23.0518 20.9128C23.0658 20.8568 23.0685 20.7985 23.0596 20.7414C23.0508 20.6844 23.0307 20.6297 23.0004 20.5805C22.9702 20.5313 22.9304 20.4887 22.8834 20.4551C22.8364 20.4215 22.7832 20.3977 22.7269 20.385C22.6706 20.3723 22.6123 20.3709 22.5555 20.3811C22.4986 20.3912 22.4444 20.4126 22.3959 20.444C22.3475 20.4754 22.3058 20.5162 22.2733 20.5639L20.4041 23.1805L19.4661 22.2425C19.384 22.166 19.2753 22.1243 19.1631 22.1263C19.0509 22.1283 18.9438 22.1737 18.8644 22.2531C18.785 22.3325 18.7396 22.4395 18.7376 22.5518C18.7356 22.664 18.7773 22.7726 18.8538 22.8547L20.1534 24.1544C20.1979 24.1988 20.2515 24.2331 20.3105 24.2547C20.3696 24.2763 20.4326 24.2849 20.4953 24.2797C20.5579 24.2745 20.6187 24.2558 20.6734 24.2248C20.7281 24.1938 20.7753 24.1512 20.8119 24.1001L22.978 21.0676Z" fill="white"/>
<path d="M21.4541 14.9333C21.9315 15.4837 22.1939 16.1882 22.1929 16.9168V17.9999C22.1929 18.1194 22.2899 18.2165 22.4095 18.2165H23.4925C24.2212 18.2155 24.9256 18.4778 25.4761 18.9552C25.2219 17.9887 24.7156 17.107 24.009 16.4004C23.3023 15.6937 22.4206 15.1874 21.4541 14.9333Z" fill="white"/>
</svg>
