<svg width="41" height="42" viewBox="0 0 41 42" fill="none" xmlns="http://www.w3.org/2000/svg">
<rect x="0.19043" y="0.599091" width="40.4333" height="40.4333" rx="20.2166" fill="#2F844D"/>
<path fill-rule="evenodd" clip-rule="evenodd" d="M24.9798 16.5564C25.0754 16.6201 25.1417 16.7192 25.1643 16.8319C25.1868 16.9445 25.1637 17.0615 25.0999 17.1571L19.9014 24.955C19.8658 25.0083 19.8189 25.053 19.7639 25.0859C19.709 25.1189 19.6474 25.1393 19.5837 25.1456C19.5199 25.1519 19.4556 25.1439 19.3952 25.1224C19.3349 25.1008 19.2801 25.0661 19.2348 25.0208L15.7691 21.5551C15.6926 21.473 15.6509 21.3644 15.6529 21.2521C15.6549 21.1399 15.7003 21.0328 15.7797 20.9535C15.8591 20.8741 15.9662 20.8286 16.0784 20.8266C16.1906 20.8247 16.2993 20.8663 16.3814 20.9428L19.4734 24.0348L24.3791 16.676C24.4429 16.5805 24.542 16.5142 24.6547 16.4918C24.7673 16.4694 24.8843 16.4926 24.9798 16.5564Z" fill="white"/>
</svg>
