<svg width="41" height="42" viewBox="0 0 41 42" fill="none" xmlns="http://www.w3.org/2000/svg">
<rect x="0.217773" y="0.754333" width="40.4333" height="40.4333" rx="20.2166" fill="#A57F35"/>
<path fill-rule="evenodd" clip-rule="evenodd" d="M14.8027 20.971C14.8027 17.8605 17.324 15.3392 20.4345 15.3392C23.545 15.3392 26.0663 17.8605 26.0663 20.971C26.0663 24.0815 23.545 26.6028 20.4345 26.6028C17.324 26.6028 14.8027 24.0815 14.8027 20.971ZM20.4345 18.8049C20.5494 18.8049 20.6596 18.8506 20.7408 18.9318C20.8221 19.013 20.8677 19.1232 20.8677 19.2381V21.4042C20.8677 21.5191 20.8221 21.6293 20.7408 21.7105C20.6596 21.7918 20.5494 21.8374 20.4345 21.8374C20.3196 21.8374 20.2094 21.7918 20.1282 21.7105C20.0469 21.6293 20.0013 21.5191 20.0013 21.4042V19.2381C20.0013 19.1232 20.0469 19.013 20.1282 18.9318C20.2094 18.8506 20.3196 18.8049 20.4345 18.8049ZM20.4345 23.5703C20.5494 23.5703 20.6596 23.5246 20.7408 23.4434C20.8221 23.3621 20.8677 23.2519 20.8677 23.1371C20.8677 23.0222 20.8221 22.912 20.7408 22.8307C20.6596 22.7495 20.5494 22.7038 20.4345 22.7038C20.3196 22.7038 20.2094 22.7495 20.1282 22.8307C20.0469 22.912 20.0013 23.0222 20.0013 23.1371C20.0013 23.2519 20.0469 23.3621 20.1282 23.4434C20.2094 23.5246 20.3196 23.5703 20.4345 23.5703Z" fill="white"/>
</svg>
