<svg width="42" height="42" viewBox="0 0 42 42" fill="none" xmlns="http://www.w3.org/2000/svg">
<rect x="0.859375" y="0.710999" width="40.4333" height="40.4333" rx="20.2166" fill="#CE2C2C"/>
<path fill-rule="evenodd" clip-rule="evenodd" d="M15.795 15.2959C15.9099 15.2959 16.0201 15.3415 16.1014 15.4228C16.1826 15.504 16.2282 15.6142 16.2282 15.7291V16.041L17.2899 15.7753C18.5941 15.4492 19.9719 15.6004 21.1744 16.2016L21.2368 16.2328C22.2338 16.7314 23.3741 16.8646 24.4593 16.6094L26.2557 16.1866C26.3231 16.1708 26.3933 16.1713 26.4604 16.1882C26.5275 16.2051 26.5896 16.2378 26.6414 16.2836C26.6933 16.3295 26.7334 16.387 26.7585 16.4515C26.7835 16.516 26.7927 16.5856 26.7854 16.6544C26.5704 18.639 26.5714 20.6409 26.7883 22.6253C26.7998 22.7304 26.7725 22.8362 26.7114 22.9226C26.6503 23.009 26.5597 23.0701 26.4567 23.0943L24.658 23.5177C23.3755 23.8195 22.0277 23.6622 20.8492 23.0729L20.7868 23.0417C19.7695 22.533 18.6037 22.4049 17.5002 22.6807L16.2282 22.9984V26.1262C16.2282 26.2411 16.1826 26.3513 16.1014 26.4325C16.0201 26.5138 15.9099 26.5594 15.795 26.5594C15.6801 26.5594 15.5699 26.5138 15.4887 26.4325C15.4075 26.3513 15.3618 26.2411 15.3618 26.1262V15.7291C15.3618 15.6722 15.373 15.6159 15.3948 15.5633C15.4166 15.5107 15.4485 15.463 15.4887 15.4228C15.5289 15.3825 15.5767 15.3506 15.6292 15.3288C15.6818 15.3071 15.7381 15.2959 15.795 15.2959Z" fill="white"/>
</svg>
